<svg xmlns="http://www.w3.org/2000/svg" viewBox="0 0 425.02 612.96">
  <g id="Layer_2" data-name="Layer 2">
    <g id="norge">
      <g id="vestlandet">
        <path d="M42.41,611.75l-4.1-4.08-1.41-1.12-1,.8-.15,3.53-3.17-1.71-4.37-1.12,1.26-4.87L32.1,602l-.59-2.72-1.45-1.83.2-10-1-7.52L32,572.28,34.47,568l3-3.08,2.75-3.5-1.67-4.23,0-6.47,3-7.15,4.44-7.1.55.13c.26.07,6.4,1.59,8.11,7.32,1.23,4.16.79,6.13.42,7l1.59,3.57,3,3.68.93,5.06L64,567.9l.44,2.32,6.2.37,7.83,3.18,2.65,1.41,1.37-1.39.17-4.35,3.61.88,3.09,2.77L92.08,578l-.8,4.55-9.58,10L77,598.67l-4.43,6.25-5.49,1L64,607.26l-3.87,3.18-2.38-.3-3.17,2Z" style="fill: #f43b00"/>
        <path d="M46.47,537.36s5.93,1.38,7.52,6.76.31,6.69.31,6.69l1.82,4,2.9,3.61.94,5,3.35,4.71.51,2.74,6.71.41,7.67,3.07,3.17,1.67,2-2,.14-3.7L86,571l2.84,2.55L91.31,578l-.68,4L81.11,592l-4.69,6.21-4.27,6-5.26,1-3.28,1.44-3.71,3-2.3-.28-3.17,2-11.67-.43-3.89-3.86-1.94-1.54-1.75,1.39-.1,2.62L33,608.41l-3.73-1,1-3.73L33,602.5,32.22,599l-1.39-1.75.2-9.74-1-7.39,2.63-7.47,2.43-4.12,3-3.07,3.07-3.88L39.35,557l0-6.17,3-6.94,4.1-6.56Zm-.75-1.8-.6,1L41,543.07l-.06.11-.05.12-3,6.94-.13.29v.32l0,6.16v.31l.11.29,1.45,3.67-2.44,3.12-2.92,3-.14.15-.09.16L31.3,571.8l-.07.14-.06.14-2.61,7.46-.13.36.05.39,1,7.25-.19,9.62v.57l.35.45,1.16,1.47.42,1.89-1.65.72-.71.31-.19.75-1,3.73-.4,1.54,1.53.39,3.54.92L34.31,611l2.25,1.22.1-2.55.07-1.9.2-.16.89.7,3.85,3.83.44.43h.62L54.4,613h.49l.41-.26L58,611l1.74.22.68.07.52-.43,3.52-2.91,2.92-1.28,5.07-.95.64-.11.37-.52,4.25-6,4.63-6.1,9.45-9.88.33-.35.09-.48.67-4,.09-.55-.27-.48-2.49-4.51-.13-.23-.2-.19L87,569.75l-.29-.27-.39-.09-2.48-.61L82,568.33l-.08,1.93-.12,3.08-.73.75L79,573l-.08,0h-.08l-7.67-3.08-.23-.09h-.26l-5.46-.34-.28-1.53-.06-.35-.21-.28-3.17-4.42-.87-4.69-.08-.38-.24-.31L57.5,554l-1.43-3.17c.42-1.18.61-3.34-.54-7.19-1.83-6.2-8.4-7.8-8.68-7.86l-1.11-.26Z" style="fill: #fff"/>
      </g>
      <g id="ostlandet">
        <path d="M88.94,574l-3.11-3-2.31-.36-.13,3.48-2,2.07-11-5.08L63.8,571l-.6-3.27-3.4-4.35-.74-5.46-2.63-2.65-2.24-4,.16-5.59-2-5.11-5.67-3.23-.32-5.13,2-5.46,6-4.85L57.31,520l-.41-4.65,2.79-6.72-1-8.51-.35-1.85-3.59-3.31,6.88-9.65,7-1.71L69.9,479l-2.07-2.85v-5.39l3.84-3.87-2-4.28,3.54-.66.48-1.74-1.93-2.81-5.08-1.59-.62-3.46-2.6-3.84-6.36-.66L54,436.74l5.13-5.22,8.12-2.19,1.25-4.07,9.14-4.54,12.15.5,10.8,4.3,3.33-3.12,4.17-8.3,4.3-8.18,8.83,3,5.18-1.62,6.92,5.42,6.34,6.93,1.33,1.89,4.83-1.21,4.47,2.1,3.45-.46,1.66,6.57-3.14,15.13.11,4.63,5.06,6.38,6.9,3.59,3.59,7.79L166,475l-2.24,4.47L157.65,481l-1.51,1.9L162,494.75l2,16.17L162.86,522l-5.6,8.48-5,.93-1.3,3,.7,3.75-4.26,6.62,2.18,15.34-3.8,12.16-3.26,1.37-9.06-10.91-9.39.16-3.41-7.75,1.73-7.8-1.64-11.89,3.9-4.23-2.25-1.75-3.29,4.8L121.28,546l-4.86.68.21,1.11,2.23,4.12-3.64,15.07-8.48,3.76-3.58-1.29L102.6,567l-3.92-2.83-.57,1.72,4.29,4.33-11.61,8.29Z" style="fill: #f43b00"/>
        <path d="M112.76,406.89l8.44,2.9,5-1.59,6.55,5.13,6.27,6.85,1.59,2.27,5.08-1.27,4.42,2.09,3-.39,1.44,5.7-3.12,15.08.12,5,5.33,6.72,6.8,3.54,3.37,7.3-1.86,8.5-2,4.07-6,1.59-2,2.49L161.25,495l2,16-1.11,10.82-5.32,8-5.08.94-1.58,3.64.68,3.67-4.24,6.6,2.19,15.47-3.59,11.59-2.38,1L133.84,562l-9.24.16-3.09-7,1.69-7.69-1.58-11.67,4.24-4.58-3.6-2.8-4,5.76,2.07,11.12-4.85.68.38,2,2.14,4-3.46,14.39-7.85,3.47-2.87-1-.53-2.25-5-3.64-1.08,3.17,4,4-10,7.15-1.52-3.72-3.4-3.34-3.45-.54-.15,4.07-1.4,1.44-10.7-4.91-6-.06L64,567.36l-3.38-4.31-.75-5.51-2.74-2.77L55,551.11l.16-5.56L53,540l-5.55-3.17-.28-4.55L49,527.22l5.76-4.65,3.43-2.17-.43-4.94,2.79-6.73L59.46,500l-.4-2.16-3.28-3L62.09,486l7.13-1.75,1.59-5.38-2.15-3v-4.81l4-4-1.77-3.86,3-.57.7-2.57-2.29-3.34-4.89-1.52L66.85,452,64,447.75l-6.21-.65-2.88-10.16,4.65-4.76,8.35-2.25,1.27-4.16,8.66-4.26,11.8.49,11.1,4.43,3.8-3.55,4.24-8.43,4-7.57Zm-.84-1.95-.62,1.2-4,7.57-4.12,8.2-2.86,2.68-10.21-4.06-.24-.11h-.27l-11.76-.5h-.4l-.37.18-8.66,4.3-.61.3-.2.66-1,3.29-7.5,2-.41.11-.3.31-4.66,4.76-.65.66.26.89,2.89,10.16.29,1,1.07.11,5.46.58,2.29,3.38.47,2.81.17.95.91.29,4.37,1.37,1.58,2.28-.24.9-2.06.38-2,.38.85,1.85,1.3,2.85L67.5,470l-.46.46v6l.3.42L69,479.16l-1.1,3.75-6.24,1.53-.58.14-.34.48-6.34,8.84-.8,1.15,1,.94,2.88,2.66.3,1.59,1,8.26-2.62,6.35-.15.36v.39l.35,4-2.62,1.66-.08,0-.07.06L47.89,526l-.3.26-.15.42-1.81,5.14-.11.31v.33L45.8,537l.06.85.73.43,5.06,2.88,1.88,4.69-.15,5.22v.43l.23.39,2.07,3.66.1.19.15.14,2.38,2.39.67,5,.06.42.27.34,3.17,4,.45,2.45.24,1.28h1.31l5.7.06,10.4,4.76,1,.47.79-.8,1.41-1.44.42-.44v-.61l.08-2.28,1.18.19,2.81,2.75,1.42,3.45.79,1.86,1.63-1.17,10-7.14,1.45-1,2.63.94.59.21.58-.25,7.84-3.47.72-.32.18-.79,3.48-14.4.14-.59-.3-.53-2.07-3.74v-.18l3.21-.45.93-.13.09.65L120,554.78l-.11.51.2.47,3.1,7,.42,1h1l8.44-.15,8.44,10.16.75.91,1.09-.46,2.38-1,.68-.29.21-.7,3.65-11.63.11-.35-.06-.35L148.24,545l4-6.11.34-.53-.11-.62-.59-3.17,1-2.38,4.24-.8.66-.12.37-.56,5.26-8.1.22-.32,0-.39,1.12-10.83v-.36l-2-15.94v-.27l-.13-.25L157.06,483l1-1.3,5.45-1.42.7-.18.32-.64,2-4.07.1-.17,0-.2,1.88-8.5.12-.53-.23-.48-3.37-7.31-.23-.49-.47-.26-6.51-3.38-4.76-6-.09-4.26,3.08-14.87.07-.36-.09-.36-1.45-5.7-.35-1.37-1.4.19-2.53.33-4-1.88-.51-.24-.55.13-4,1-1-1.4-.06-.08-.07-.07L134,412.26l-.1-.09-.1-.09L127.24,407l-.66-.51-.79.25-4.53,1.42-7.93-2.72-1.29-.45Zm7.94,129.56,2.63-3.83.9.7-3.06,3.31-.36.4Zm-21,31.2.08-.25,2.8,2,.35,1.46Z" style="fill: #fff"/>
      </g>
      <g id="trondelag">
        <path d="M88.45,421.84l3-4.75.5-4.64-5.5-5.31,1.31-2.81,6.84-1.71,4.85-11.13-3.71-5.43-4.15,2.7-6.23.26-3-4.55,2-5.56L85.58,375l4.18-1.07,0,4.43,1.89,1.31,2.36-3,.41-3.16-2.54-1.17-6.33.53-9.28,2.46-1-5.62,3.65-.67,1.45-1.17-1.45-2.18L74.58,364l1.74-3.1,4.38-.43,2.91-4.68,3.73,4.06-3,2.11,1.23,2.78,6,1.55,5.53,2.6,2.94-3.34,3.49,1.76,0,3.57,3.08,2.17-.94,2.66.4,2.67,3.88-1.61,2.17-4.4,2.79,1.49,5.37-.5,2.13-2.5-1.71-2.18.51-2.57,6.8-2.57,5.22-3.3,1.14-3.41-.61-1.65-.88.72-.61,3.16-4,.74-.72-3.92,3-2.88,2.84-4.63-.8-.2-9.47,7.17-.47,1.5,2.34.81.22,2.92L113.7,368.9l-3.79,3.43-5.16-3.88-.71-3.86,4-3.5.13-1.76-2-.05-2.32,3-3.32,1.29-1.43-3.86,3.61-3.63,4-2.45.35-1.38-.66-3.18L120.28,328l5-4.55,2.33,2.42,3.11,3.31,2.3.8,3.21-5.22-.47-1.54-5.53-3.14-.46-3.59,5.54-1.83,1.52,3.13,3.37,1.51.79-1.59-3.17-1,.35-2.53-.52-1.08-4.53.72-7.31.15-4.63-2.67,2.73-4,3.86-1.73,3.9,3.85,5.48-1.8,1.33-2.81-.57-.83-3.26.68-.42-5,8-1.49,2.1,5,8.47,3.08,6.8-.81,4.91-6,16.34-2.18,2.19,1.56,6-1.12-11,21.86.34,2.37,8.13,4.6,1.12,9.2-3.11,11.07-5.1.79-8-1.45-7.8,1.38-13,21.41.71,3.77-1.93,4.9-1.57,6.06,1.8,5.12,2.58,5.65-2.15,4.33,1.46,7.84L149.74,410l2.61,5.83,1.87,6.95-4.22.79-4-2.19-5.55,1.25-7.86-9.08-6.42-5-5,1.51L113,407l-3.73,7.12-4.57,9-4.13,3.53Z" style="fill: #f43b00"/>
        <path d="M180.64,298.19l2.21,1.59,4.76-.89L177.3,319.53l.42,3,8.12,4.6,1.06,8.65L184,346.21l-4.45.69-8-1.46-8.32,1.45-13.39,22,.71,3.85-1.86,4.76L147,383.84l1.88,5.35,2.44,5.37-2.1,4.23,1.46,7.83L148.86,410l2.73,6.12,1.64,6.07-3.1.58-4-2.2-5.38,1.21L133.13,413l-6.79-5.26-5.17,1.58-8.59-3.28-4.06,7.75-4.5,8.89-3.65,3.12-10.74-4.39,2.63-4.09.55-5.21L87.45,407l.91-1.95,6.85-1.72,5.19-11.9L96,385l-4.61,3-5.55.23-2.49-3.83,1.91-5.2,1-3.54L89,375v3.84l2.86,2,2.94-3.82.52-4L92,371.46l-6.62.56-8.47,2.27-.74-4,3.07-.57L81.44,368l-2-3-3.72-1.45,1.08-1.93,4.37-.43,2.56-4.12,2.38,2.62-2.8,2L85,365.4,91.22,367l6,2.83,2.93-3.33,2.51,1.27v3.49l2.92,2.06-.79,2.27.57,3.88,5.1-2.12,1.94-3.92,2.28,1.22,5.93-.56,2.75-3.25-1.88-2.38.35-1.78,6.47-2.45,5.56-3.48,1.31-4-1.09-2.95-2,1.58-.56,2.92-2.65.49-.5-2.72,2.8-2.65,3.46-5.65-2.22-.55-10,7.6-.79,2.48,2.56.89.16,2-11.24,8.12-3.34,3L105.5,368l-.58-3.12,4-3.41.21-2.93-3.24-.08-2.43,3.13-2.38.92-1-2.63,3.17-3.18,4.25-2.58.48-1.86-.63-3,13.56-20.71,4.33-4,1.79,1.87,3.24,3.45,3.09,1.07,3.73-6.08-.66-2.18-5.44-3.1-.33-2.55,4.26-1.41,1.34,2.77,4.33,1.94,1.55-3.1-3.42-1.08L139,314l-.89-1.83-5.06.8-7,.14L122.35,311l2.1-3.07,3.17-1.41,3.82,3.84,6.26-2.06,1.68-3.53-1.13-1.64-2.9.61-.29-3.38,6.69-1.24,2,4.76,9,3.3,7.31-.88,4.92-6,15.71-2.11Zm.41-1.62-.62.09-15.71,2.1-.62.08-.39.49-4.52,5.49-6.3.79-7.93-2.9-1.71-4.13-.49-1.19-1.27.24-6.69,1.25-1.41.26.12,1.43.28,3.38.15,1.78,1.76-.36,1.87-.4-1,2.1-4.71,1.54-3.17-3.13-.79-.79-1,.44-3.17,1.41-.41.19-.26.36-2.1,3.07-1,1.42,1.49.85,3.69,2.13.38.22H126l6.86-.14-2.78.88-1.25.41.18,1.31.33,2.54.1.8.69.4,4.9,2.78.28.89L132.63,329l-1.52-.52-3-3.17-1.8-1.88-1-1.12-1.14,1.05-4.34,4-.15.13-.11.17L106,348.35l-.36.55.13.64.56,2.68-.23.89-3.69,2.23-.16.1-.14.14L99,358.76l-.71.72.35.95,1,2.63.56,1.52,1.5-.59,2.38-.92.41-.16.27-.34,1.94-2.5h.8v.6l-3.46,3-.69.6.16.9.23,1.25-.16-.08L101,365.05l-1.09-.55-.8.92L97,367.86l-4.91-2.32-.14-.06h-.14L86.22,364l-.8-1.84L87.16,361l1.48-1-1.22-1.34L85,356l-1.41-1.54-1.1,1.78-2.16,3.46-3.59.36-.79.08-.4.72-1.25,1.92-.9,1.59,1.72.66,3.24,1.23.91,1.37-.73.59-2.67.5-1.59.28.29,1.59.75,4,.31,1.68,1.65-.43,8.38-2.23,3-.25-.2.05-2.75.7-.89.23-.25.89-1,3.48-1.9,5.13-.27.79.43.67,2.5,3.83.49.76h.91l5.55-.24h.44l.36-.24,3.31-2.16,3,4.42L94,402l-6.1,1.52-.73.18-.32.69-.91,2-.48,1,.79.79,4.81,4.66-.43,4.06-2.43,3.78-1,1.59L89,423l10.74,4.3.89.36.73-.63,3.65-3.12.24-.2.14-.28,4.51-8.89,3.38-6.48,7.27,2.78.51.19.51-.15,4.4-1.32,6,4.67,7.5,8.66.62.72.93-.2,4.76-1.09,3.49,1.91.49.27.56-.1,3.1-.57,1.69-.32-.46-1.66-1.57-6.11v-.12l-.05-.12-2.42-5.41,1.46-2.73.26-.5-.1-.54L150.88,399l1.86-3.75.35-.71-.32-.68-2.37-5.32-1.71-4.82,1.49-5.78,1.83-4.64.16-.42-.08-.45-.6-3.25,12.69-20.84,7.31-1.3,7.74,1.41.26.05.26-.05,4.47-.69,1-.16.27-1,2.93-10.43.09-.3,0-.32-1.06-8.65-.1-.79-.69-.4-7.44-4.2-.25-1.75,10.13-20.2,1.44-2.86-3.17.58-4.11.79-1.67-1.19-.51-.36ZM135.93,314.2l1.24-.19.16.33-.22,1.63-.07.51-.73-1.51-.38-.79Zm3.88,4.1-.66-.29.7.21Zm-16,37.48,7.63-5.77-1.5,2.45L127.33,355l-.63.59.16.85.51,2.72.28,1.59,1.59-.29,2.65-.49.48-.08-4.73,2.91-6.35,2.38-.79.31-.18.87L120,368.1l-.14.73.45.57,1.08,1.37-1.5,1.77-4.8.45-1.87-1-1.11-.59,2.14-1.89,11.17-8.08.73-.52-.07-.89-.16-2-.08-1-1-.34-1.11-.39.16-.53Zm9.6,1.21v-.17l0,.17ZM104.3,370.43v-1.31l.23.17,4.38,3.31,1,.79,1-.87.41-.37-.3.61-1.69,3.39-2.66,1.11-.22-1.47.68-1.9.39-1.13-1-.7-2.26-1.59Zm-13.75,2.76,1.24-.1,1.82.84-.31,2.38-1.76,2.29-1-.65v-4.74Z" style="fill: #fff"/>
      </g>
      <g id="vestlandet-2" data-name="vestlandet">
        <path d="M21.56,596.78l-5.11-4.86-5-4.21-2.7-8.51-.12-11.79,2.46-2.17,5.59,2.69,1.82.66.12-1.28-.26-4.22,5-8.43-.17-3.12L21.77,551l-2-.37-.8-4.35-.63.11-1,2.83.8,3.33-3.05.16-2-1.35-.7.13-.52,2.31-3.44-1-.92-1.93-3-.35-.15-7.09L1.5,536.66l3.31-3.41,7.41,1,4,2.54,2.48-2.31-1.11-2.44-3.18-3.55,5.83-2.89,1.5-2.46.32-5.14,4-.73-2-3.18,10.8-10.07L29,505l-8.34,10.56,0,4.77-3,2.6-3.17-4.45.79-3.47-.91-3.89-.86.16L11,516.54l-3.17-4L5.25,505,9,499.73l5.76,1.59,2-2.56.92-5.28-.66-.25-4.51,4.52L5.87,499l-4.76-3.8L3,492.64,1.19,490.4l.71-4.11,4.91.65,3.61,2.94.52-.24-1.41-2.39,2-2.6-7.89-.29.52-11.69,7.35,3.18,6.19.14-.07-2.22,9.79.93,5.95,1.74L38,473.11l4.46.7L45.68,477l-2.23,4.86L48,484l.74-7.1,5.32-2,3.31-1.72.23-1.59-4-2.14,1.48-5.31,1.15-3-.73-.16-4.23,1.14.68,6.93-.44,4.28H46.74l-7-4,1.85-5-.38-.6L39,467.53,35.8,474l-4.44-.25-6.27-2.52L13,474l-8.1-6.35-2.3-6.95,4.64-5.06,2.24-1.12-.79-3.69L5,447.71l1.73-2.82,3-.91-.28-.79-7.68-3.5,3.91-3.18,8.72,4.18,15.19,1.8,8.63.19,2.92-.55-.3-1-8.19.28-11.3-1-9.68-2.71-2-1.41,3.5-4.33,2.81-.52.3-4.42,9.8-.11L28,431.4l2.3-.43-2.81-4.14,3.35-5.56,9.52-2.47L45,420.08l3.39,5,1.58.17.75-1.72-.91-2.63-4.33-5.51-6,.73L35.21,416l-1.46-4.41,3-3.3,7.43-.33,13.38,2.49h6.3l3.34-2.73,1-2-3.85-1.5-11,3.54-6.29-1.65-4.38-2.74,3.46-3.17,4.76.55a7.49,7.49,0,0,0,.53-1.46,10.79,10.79,0,0,1-2.88-1.58l-.65-.5,3.39-4.13,4,1.54,2.2-.18v-4.51l8.91-1.65,6,3.52,1.73,4.91,4.44,1.39,1.14-2.51-2.18-2.3-5.47-1.77,2.1-3.81,5-.51,3.48-3.53,3.11,4.45,5.41-.48,4.64-3,4.88,7-2.72,6-2.73,6.25-6.75,1.43-.79,1.58,5.38,5.27-.79,5.36-2.91,4.59-11.94-.3-8.27,4.05-1.09,4.2-8.64,2.3L55,437.24l3,9.58,6,.43,3.17,4.16.5,3.88,4.86,1.65,2.28,3.67L73.61,463l-2.54.48,1.64,3.64-4,4-.11,4.62,2,3-.87,5.38L62.18,486l-6.35,9,3.53,3.26,1.34,10.51-3,6.9.42,5.15-6.58,3.59-3.73,4.85-.6,4.26.28,2.85-1,1.58-5.25,9.76-1.59,4.57-.12,4.55,2,4.76-3.65,4.54-3.7,4.77-2.88,6.46-1.06,2.78,1.22,6.86-.22,10.18,1.87,2-6,1.12Zm15.36-86,1.46-4.76L44.27,503l-.39-.36L35.36,504l.58,3.17-.62,3.18Z" style="fill: #f43b00"/>
        <path d="M82.68,384.9,85.52,389l6-.54,4.16-2.69,4.19,6-2.53,5.63-2.57,5.93-6.72,1.42-1.21,2.47,5.5,5.39-.69,4.77-2.58,4.05L77.41,421l-8.77,4.29-1.07,4.13-8.41,2.23-5.08,5.37,3.29,10.54,6.16.44,2.85,3.72.52,4.15L72,457.62l1.89,3.06-.79,1.64-3.17.59L71.74,467,68,470.85,67.84,476l2,2.89L69,483.47l-7.33,1.77L54.76,495l3.82,3.54,1.28,10-3,6.88.4,4.84L51,523.71l-4,5.15-.62,4.58.27,2.68-.8,1.39-5.3,9.84-1.68,4.76L38.79,557l1.87,4.52-3.38,4.1-3.77,4.84L30.59,577l-1.16,3,1.25,7-.22,10.43,1.1,1.2-.85.16-3.38.63-5.28-3.27L17,591.39l-4.85-4.1-2.59-8.18-.1-11.31,1.78-1.59,5.12,2.46,2.85,1.06.23-2.38-.25-4,5-8.44L24,551l-2-.8-1.58-.29-.83-4.57-1.86.35-1.25,3.48.65,2.63-1.81.09-2-1.38-1.52.29-.46,2L9,552.14l-.95-2-2.72-.33-.13-6.55-2.77-6.4,2.65-2.74,6.84,1,4.33,2.78,3.34-3.12-1.38-3.07-2.52-2.87,5.08-2.49,1.73-2.82.28-4.71,4.51-.84-2.25-3.58,9.7-9.13.37,1.93-.73,3.71,3,1L39,506.66l6.59-3.48-1.5-1.38-15.55,2.45-8.73,11v4.66l-2.09,1.8-2.46-3.46L16,515l-1.05-4.76-2,.37-2.08,4.47-2.29-2.91-2.38-7,3.22-4.51,5.73,1.58,2.5-3.12L18.69,493l-1.75-.67-4.71,4.71-6.11,1.13-3.91-3.1L4,492.71l-2-2.47.53-3,3.92.51,3.81,3.07,1.76-.79-1.58-2.71,2.61-3.4-8.63-.31.44-9.74,6.43,2.8,7.19.16-.07-2.15,8.81.82,6.25,1.83L38.19,474l3.89.61,2.64,2.59-2.31,5,6.21,3,.8-7.73,4.91-1.82L58,473.67l.36-2.56L54.51,469l1.32-4.62,1.47-3.7-1.82-.4-5.07,1.36.73,7.52-.37,3.46H46.93l-6.23-3.51,1.77-4.82-1.29-2-2.84,4.87-3,6.05L31.51,473l-6.34-2.56-12,2.68-7.63-6-2.06-6.28,4.22-4.61,2.67-1.33-1-4.56L6,447.55l1.22-2,3.46-1.05L10,442.66l-6.82-3.18,2.53-2.05,8.4,4,15.32,1.82,8.78.2,3.86-.72-.71-2.45-8.72.3-11.23-1L11.94,437l-1.25-.85,2.78-3.44,3.17-.58.29-4.3,8.55-.09,2.1,4.61,4.11-.8-3.17-4.76,2.92-4.87,9-2.34,4.12,1.15L48,425.79l2.55.28,1.11-2.54-1.07-3-4.68-6-6.35.79-3.75-.15-1.14-3.45,2.5-2.72,7-.3,13.36,2.5h6.65l3.69-3,1.47-2.84-4.94-1.93L53.4,407l-5.95-1.59-3.39-2.11,2.42-2.2,4.94.58s1.51-3,.6-3-2.94-1.53-2.94-1.53L51.56,394l3.67,1.4,3.12-.25v-4.57l7.93-1.48,5.51,3.22,1.76,5L79,399.06l1.66-3.63L78,392.59l-4.7-1.54,1.43-2.6,4.9-.49,3-3.06Zm.17-2.48-1.34,1.36-2.61,2.65-4.33.44-.79.09-.4.73L72,390.28l-.12.22-4.71-2.77-.51-.29-.58.1L58.1,389l-1.31.24v4.46l-1.29.09-3.34-1.27-1.08-.41-.72.88-2.51,3.05-1.05,1.26,1.32,1a13.21,13.21,0,0,0,2.38,1.46l0,.12-3.78-.44-.71-.09-.54.49-2.38,2.2-1.59,1.41,1.78,1.11,3.39,2.12.21.12.23.07,6,1.58.45.12.44-.14,10.45-3.37,2.77,1.08-.5,1-3,2.47h-6l-13.22-2.38H44.1l-7,.31h-.66L36,408l-2.49,2.71-.62.68.29.89,1.13,3.46.35,1,1.06-.05,3.69.14h.26l5.46-.66,4,5,.79,2.21-.39.9-.66-.07-3-4.49-.33-.49-.56-.16L40.76,418l-.41-.11-.41.11-9,2.34-.63.16-.33.55L27.08,426l-.38.64-.24-.53h-1l-8.56.08H15.4l-.09,1.47-.21,3.08-1.92.35-.58.1-.36.47L9.52,435.1l-1.08,1.33,1.37,1,1.13.79L6.4,436l-.9-.43-.8.63-2.53,2.06-2,1.59,2.32,1.07,5.76,2.65L6.75,444l-.57.17-.32.52-1.21,2L4,447.89l1,.88L8,451.21,8.58,454l-1.58.8-.27.12-.2.23-4.21,4.59-.63.69.29.88,2.09,6.28.15.46.37.29,7.61,6,.59.47.74-.17,3.31-.79v1.27l-5.2-.12-6.09-2.66-2.12-.92-.1,2.31L2.9,483.5l-.08,1.59,1.59.05,5.55.2-.73,1-.66.84.22.37-1.31-1.07-.34-.27-.45-.05-3.92-.52-1.51-.2L1,486.9l-.52,3-.12.7.44.56L2,492.68.93,494.12,0,495.33l1.21,1,3.9,3.1.57.45.71-.13,1.94-.36-.25.35-3.23,4.52-.47.66.27.79,2.38,7,.09.25.16.22L9.57,516l1.59,2,1.09-2.34,1.52-3.28.57,2.57-.65,3-.15.69.41.57,2.48,3.45,1,1.43L18.76,523l2.09-1.8.25-.22-.13,2L19.7,525,15,527.36l-1.86.92,1.38,1.59,2.38,2.69.79,1.81-1.59,1.5-3.3-2.11-.28-.19-.34-.05-6.84-1-.79-.11L4,533l-2.66,2.74-.73.79.42,1,2.65,6.11.12,6.24v1.38l1.37.16,1.86.23.57,1.19.31.65.68.2,2.29.66,1.59.46.38-1.63.19-.88,1.35.92.44.3h.54l1.81-.09,1.93-.09-.47-1.88-.53-2.16.38-1,.37,2,.2,1.07,1.07.2,1.39.27.91.36.13,2.38-4.76,8-.24.42v.49l.24,3.91v.2l-.86-.31-5-2.52-1-.46-.79.7-1.78,1.59-.54.48v.72l.1,11.32v.24l.07.22,2.6,8.18.14.44.35.29,4.8,4.07,5,4.76.11.11.14.09,5.27,3.26.52.33.6-.12,3.38-.62.87-.16,2.82-.53-2-2.12-.68-.73.22-9.78v-.31l-1.18-6.58,1-2.56,2.81-6.35,3.66-4.68,3.34-4.15.59-.74-.36-.87-1.75-4.21.12-4.26,1.59-4.39,5.23-9.71.79-1.35.26-.45,0-.52L48,533.44l.56-4,3.5-4.56,6-3.25.91-.5-.08-1-.38-4.44,2.82-6.52.17-.4-.06-.42-1.28-10-.07-.57-.42-.39-2.8-2.59,5.78-8.13L69.41,485l1-.26.17-1,.73-4.55.1-.6-.33-.52-1.58-2.48.09-4.07L73,468.08l.8-.8-.45-1-1-2.23,1.15-.22.8-.15.34-.73.79-1.64.37-.8-.46-.73-1.89-3.06-.3-.48-.54-.19-4.13-1.39L68,451.5l-.06-.43-.26-.34L64.85,447l-.42-.58-.72,0L58.63,446,56,437.41l4.12-4.36L68,430.94l.9-.24.24-.89L70,426.4l7.72-3.78,11.32.31H90l.48-.79L93,418.08l.18-.28,0-.35.69-4.76.11-.79-.57-.57-4.68-4.58.37-.75,6-1.24.79-.17.33-.74,2.57-5.9,2.52-5.61.37-.8-.52-.73-4.18-6-.88-1.25-1.29.79-3.83,2.48-4.76.43L84,384l-1.08-1.59Zm-8,13.64-1.13-3.22L77.16,394l1.68,1.77-.64,1.38ZM28.49,430.51,27.33,428,29,430.42Zm-13.92,9.41-3-1.41,6.58,1.84Zm37.54,22.87,3-.8-.71,1.76v.16l-1.29,4.66-.33,1.17,0-.46V469Zm.11,11.42.15-1.44.3-3,1.1.6L56.69,472l-.09.66-2.91,1.52L48.89,476l-.92.35-.11,1-.58,5.49-2.78-1.34,1.67-3.56.46-1-.79-.79-2.64-2.59-.37-.36-.5-.08-3.89-.61-.65-.1-.39.28,1.39-2.77,1.16.66,6.23,3.5.36.21h5.68Zm-32.22-1L25,472,31,474.42l.24.1h.26l3,.17-1.23.89L27.72,474l-.15,0h-.15L20,473.23ZM9.76,499.11l2.74-.51.48-.09.35-.35,3.41-3.41-.65,3.7-1.58,2L9.8,499.12Zm26.53,5.5,4.51-.71-2.5,1.32-.58.31-.19.62-1.14,3.66-.16-.05.46-2.38.06-.3-.06-.3-.35-1.92-.05-.26Zm-6.9,1.11,3-.48L24,513.18,23,514l.69,1.11,1,1.58-2.21.42-1.11.2v-1.53l7.93-10.11Z" style="fill: #fff"/>
        <path d="M5.25,526.13l2.92-3-1.76-1.28-2.64-4.07,5.24-1,4.78,3.35.92,4.89-2,3.73-2.36,3-5.6,1Z" style="fill: #f43b00"/>
        <path d="M8.83,517.62l4.24,3,.8,4.31-1.81,3.42L9.94,531l-4.31.8L6,526.47,9.36,523,7,521.26l-1.9-2.91,3.75-.69ZM9.19,516l-.65.13-3.78.67-2.33.43,1.32,1.95,1.91,3,.16.25.24.17.9.65-2.08,2.17-.4.41,0,.57-.38,5.33-.14,2.05,2-.37,4.3-.8.59-.11.36-.46,2.13-2.68.1-.11.06-.14,1.81-3.41.26-.49-.1-.54-.8-4.31-.12-.64-.53-.37-4.24-3-.55-.38Z" style="fill: #fff"/>
        <path d="M17.45,422l3.36-1.45,1.8-4.05,6.19-.43.37,6.34-4.48,3.4-4,.29Z" style="fill: #f43b00"/>
        <path d="M28.06,417l.29,5.12-4,3L21,425.3l-2.34-2.95,2.72-1.16,1.72-3.89Zm1.49-1.7-1.59.11-4.92.35-.95.07-.39.87L20.24,420l-2.14.91-1.9.79,1.28,1.59,2.35,3,.52.66.84-.05,3.34-.25H25l.38-.28,4-3,.68-.5L30,422l-.3-5.12-.09-1.59Z" style="fill: #fff"/>
      </g>
      <g id="nordnorge">
        <path d="M142.94,303.66l3.24-7,3.34-.63.66,3.55,0,1.12h.58l.74-1.49,0-3.78-3.88-.91H144l1.9-4.25,1.25-.58L144.93,279l4.22,1.05,4.54,5.41.88,2.07-.69-4.35L150,278.3l-1.83-3.18,3.3-2.83,3.12,2,.11.06L153.5,268l3.34-5.25,3.49.26,2.11,1.45,1-.41-.3-1.24-4.59-3.56-7,10.4-3.11-2,.79-4-2.2-3.07.21-.42c1.59-3.18,3.34-6.82,3.6-7.55,0-.49.72-1.23,6.35-5.8l1.06-.86,1.18,7.2,1.44-.17,2.63-2,3.88-1.87,3.26.22,1,1.12,1.32-.84-.16-2.08-9.68,1.18-3.54-2.87,2.58-2.77-1.75-5.95,3.53-1.81,2.38,3.14,3.85-3.28-.3-.8-3.41.93-2.65-3,2.55-9,2.72-1.7,2.21,4,.94,2.38,1.44-.15.5-1.12L169.12,219l3-3.91-.92-3.49,4.86-.9,1.54,2.45,8-1.39-.54-.26-7.44-2.45,3.76-4.32,12.6.85,6.47.4,1.71-.7-.55-1.43L193,201.2l-1.58,1.59L185.57,204l-5.36-2.3-1.09-4.57,3.11-3.17,1.5,3.05,1.43.34V195l4,1.31,2-.46-.27-1L186,192l6.25-4.22,11.43,8.85-.85-3.56,2.16-2.55,1-.87-.79-.75L202,190.94l-7.67-2.23,1.71-5.39,5-1.4.26-1.66-.94-1.35-4.85,1.8-5.4,6-2.38-2.38-.33-4.84,4.85-7.87,2.92,2,2.69-1.15,6.48-1.71.16-.8-4.45.21-5.88-1.87,4.07-6,3.76,1.59,1.07-.18,3.5-6.74,1.13,1.78L208,153l3.13.8,8.12,6.51.62-.59-8-6.78,1.9-2.27,4.42-1.71,1.83,2.54,4.19-1.39,1.74,6.76.14-.1-.32-7.44,3.33-3.14-1.69-1.69-2.47,3.35-4.45.17-2.18-1.19-5.68,1.48,5.81-11.36L223,138l8.39-9.72-4.81-1.38.24-8,6.35-3,.91-.79-.34-8.09,5-3.32.92,5,2.91-.54-.18-3-4.4-3.84,13.54-18.44L255,84.6l1.54,8.28-2.38,7.93h.07l4.81-6.93.6-2.65-2-2.28.36-7.66,4.36-5.55,3.39,3.09-.67,10.66-.24,2.33,2.22-3.18,3.08-8,.07-5.36L273.32,74l3.39,2.39L277,76l-2.56-3,2.38-2.59,4.76.38,4.22,5,2.6,1-.05-1.69-1.78-2.2,1.11-2.08L284,70.69l-10.86-7.23,3.39-4.77,4.23,3.5,1.28-.74.61-4.3,4.13-.79,3.9,2.24,1.85-2.38-4.43-1.71L291,48.57l3.93,1.27.35-3.73,7.47-8.32,3.75,3.31L306,46.44l-1.32,4.89-2.57,4-1.8-1.73-.84,2.55-.12,3,3.57,1.25-.5,5.91,1.74,1,1.67-3-1.5-4.62.05-7.14,5.22-10.39,6.24-.79-3.93-3.17,1.16-3.69,4.91-1.9-.7-1.67-5.83-.83L310,25.08,315.6,24l-.44-4,3.52-1.74,3.49,1.95,2.38-3.75-2.26-3.88,3-6.9L334.19,9l2.38,3.12-.45,3.48-4.22,1.08L331.83,19l2.16.92-.24,5-5,7.47,1.79,11.77,2.49,2-.22-4.87,3.3-5.21-1.28-9,3.61-7.56,3-6.35,4.07-.42,1.94,5.46.64,3.4-3,4.68,1.19,1.09,1.83,8.69,4.48-5.27L351,18.93l3.55-4.51-1.77-1.59-3.47.35.15-4.64L354,4.29l1.7-3.18,4.76,1.19L364.67,1l.6,3.22L370.38,4l-.21,7L365,14.84l-1.09,1.23,2.3,1.09,4,1.51-2,6.63,2.31.79,1.5,4.77,1.45-.53-3.38-18.19L374.4,5.4l5.8.17,2.38,3,.73,4,.93-.2,1.09-5,3.49,1.78.68,1.14,3.18-3,4.23,1.41L398,14.45l5.92-2.15,5.71,2.6,1.28,2.71,1.47,4.57L410,26.71l-9.83,8.86-9.23,2.91-9.3.42.15.35L397,41l3.09,6.31-.79,4.5,1.12.49.79-2.77,4.14-.53,1,4.31,1.59-1.58-2.07-7.15,2.69-3.25L412,45.1l1.23-3.3,7,1.86,3.8,7.24-2.61,4.67-7.13.16L412,55V58.4l-2.43,6.93-3.12,3-2.3,4.41-.33,4.1.8,4.83-2.58,3-5.72.07-2-6.18,1-6.81,1.25-6-.28-4.3-8.52-5.32-12.7-6.35-3-2.88-3.63,3.45-5.2,6.43-6.17.79-3.66,7.64L350,74.86l5.37,27.55-1.69,3.49-4.37,3.31-.72,6.46-3.82,7.86-3.17-1.73-3.35-3.1-7.14-.23-4.51-3.09-2.19,2.74.73,4-4,1-2.12,4-4.46-.55-.73-1.73-10-.61-8.56-12.93-6.61-7.33-2.86-1.38-2.94,1.54-2.25,3.07,1.51,3.66.73,5.1-6.05-1.33-5.23.79-3.91,1.44,4.82,3.37,1.71,10.15-3.81,6.13,1.18,1.45,2.81,1.59-.47,5-4.52,4-16.91-3.33-4.86.23L243.21,143l-.79-1-1.55,2,1.19,6,1.51,9.52-3.83,7.25-4.83,1.1-4.45-3.18-3.42,1L219.16,178l-1.25,7.38-2,3.88-2.34,1.37L213,194l3.62,7.75,1.9,7.88-3.8,7.23-5.15,10.84-4.13,8.3-2.19,1.48-.06,1.59,1.21,3.51,1.15,3.17L202.45,250l-5.73,3-7.14.57.55,13,1.58,23.54-3.11,8.82-5.56,1-2.19-1.68-15.69,2.07-5.22,6.29-7.24.85Zm66.63-141.91,1.25,8.51,5.05-5.13-.12-.31-3.1.92L211,160.61,207.91,159Zm54.29-58.33,1.27-5-.58-4.07-.19,1.81-2,6.64Zm66.69-49.35,2.64-4.45-.08-1.9-.24,1.85-4.81.5.79,3.18Z" style="fill: #f43b00"/>
        <path d="M356.08,2l4.34,1.09L364,2l.56,3,5-.3-.17,5.73-4.92,3.74-1.84,2.07,3.25,1.54,3.37,1.27-2,6.68,2.65.91,1.59,5.16,2.86-1L371,12.3l3.9-6.09,5,.15,2,2.51.85,4.55,2.22-.5,1-4.47,2.38,1.2,1.07,1.79,3.51-3.3,3.35,1.12.72,3.91.44,2.31,6.5-2.38L409,15.48l1.12,2.44,1.36,4.2-2.15,4.08-9.59,8.67-9,2.82-10.31.44.75,1.84,15.26,1.7,2.79,5.68-.8,4.87L401,53.31l.9-3.17,2.91-.38,1.08,5,2.94-2.86-2.09-7.2,1.82-2.24,3.73,4.09,1.44-3.81,6,1.58,3.44,6.55L421,54.77l-6.58.15L411.22,54v4.3l-2.32,6.63-3.07,3-2.44,4.66L403,76.9l.8,4.57-2.11,2.45L397,84l-1.76-5.45,1-6.63,1.18-6-.31-4.81-8.87-5.56-12.65-6.35-3.5-3.31-4.21,4-5,6.22-6.28.84L352.67,65l-3.53,9.83,5.35,27.5L353,105.43l-4.48,3.4-.74,6.66-3.41,7L342,121.2,338.48,118l-7.22-.23-4.92-3.38L323.46,118l.67,3.59-3.63.93-2,3.74-3.46-.42-.75-1.77-10-.62-8.39-12.62-6.76-7.51-3.34-1.58-3.47,1.79L279.66,107l1.65,4,.55,3.86-5.08-1.12-5.45.85-5.41,2,5.78,4,1.59,9.52-4,6.35,1.59,2,2.5,1.44-.39,4.12-4,3.46-16.62-3.27-4.75.22-4-2.14-1.3-1.66L240,143.78l1.27,6.35,1.46,9.23-3.54,6.69L235,167l-4.48-3.22-4.07,1.18-8.13,12.66L217.08,185l-1.81,3.56L212.81,190l-.66,4,3.7,7.94,1.81,7.51-3.66,7-5.16,10.87-4,8.1L202.43,237l-.09,2.16,1.25,3.65,1,2.78-2.77,3.74-5.42,2.83-7.73.61.58,13.77,1.59,23.4-2.91,8.23-4.76.89-2.27-1.66-16.32,2.15-5.21,6.28-6.73.79L144,303.23l2.72-5.85,2.16-.4.49,2.67-.06,1.9,1.9-.09,1-2.07-.05-4.6-4.57-1h-2.37l1.27-2.86,1.59-.71L146,280.06l2.74.68,4.29,5.12,1.22,2.81,1.41.32-.93-6.16-4-4.94-1.47-2.54,2.38-2,2.62,1.7,1.64.93-1.44-7.74,2.91-4.58,2.81.21,2.29,1.59,2-.84-.52-2.17-5.48-4.25-7,10.46-2-1.28.73-3.79L148,260.63s3.74-7.54,3.69-7.84,6.06-5.24,6.06-5.24l1.11,6.6,2.38-.3,2.74-2,3.63-1.74,2.72.18,1.22,1.39,2.3-1.47-.15-2.09,5.43-.36.42-1.65-16.18,2-2.62-2.13,2.31-2.47-1.69-5.76,2.38-1.21,2.46,3.28,4.91-4.18-.75-2-3.63,1-2-2.31,2.38-8.24,1.75-1.1,1.78,3.18,1.15,2.86,2.48-.28.87-1.92-5-7.69,2.77-3.77-.79-3.05,3.49-.64,1.53,2.44,11.06-1.9-2.91-1.34-6.34-2.1,2.73-3.12,12.24.82,6.65.42,2.61-1.06-1-2.52-9.47-2.91L191,202.07l-5.4,1.14-4.76-2-.88-3.75,2-2,1.18,2.38,2.77.63v-2.26l3.18,1,3-.67-.56-2.17L187.49,192l4.71-3.17,11.48,8.9.88-.7-.88-3.69,1.86-2.19,1.59-1.42L205.22,188l-3.43,2.17-6.55-1.89,1.34-4.21,5.11-1.42.39-2.49-1.4-2.14-5.6,2.09-5,5.55-1.59-1.58-.29-4.3,4.28-6.94,2.6,1.78,3-1.29,6.92-1.83.42-2.31-5.3.26-4.75-1.51,3.11-4.57,3.37,1.4,1.68-.27,3.06-5.87,2.17,3.43,1.46,9.93,6.53-6.64-.58-1.47-3,.92-1.59-4.71-3.1-1.59.21-4.5,2,.52,8.54,6.83,1.76-1.67-8.08-6.85,1.26-1.5,3.66-1.42,1.81,2.51,4-1.31,1.81,7.05,1.43-1-.32-7.51,3.66-3.46-2.93-2.95L224.48,147l-3.85.14-2.27-1.23-4.29,1.14,4.72-9.22,4.49,1.06,9.51-11-5.41-1.59.21-6.89,6-2.85,1.29-1.07-.34-8,3.6-2.38.84,4.55,4.4-.8-.26-4-4.05-3.62,12.69-17.32,2.55,1.27,1.42,7.66-2.5,8.31,1.21.8,5.35-7.69.72-3.17-2.08-2.38.34-7.08L262.43,77l2.51,2.22-.65,10.32-.68,6.56-2.2,7.27,3,1.17,1.53-6-.8-5.71,2.62-3.71L271,80.84l.08-5,2.22-.91,3.57,2.51,1.23-1.39L275.5,73l1.65-1.79,4,.32,4.14,4.93,3.9,1.43-.09-3.13-1.58-2L289,70l-4.76-.11-10-6.65,2.41-3.42,4,3.3,2.13-1.23.56-4.08,3.28-.61,4.24,2.44,2.94-3.77-4.63-1.78,2.21-4.55,4.22,1.37.41-4.45,6.77-7.55,2.87,2.53-.42,4.87L304,51l-2,3.1-2-1.94-1.26,3.88-.14,3.66L302.07,61l-.49,5.8,2.87,1.7,2.24-4-1.58-4.84,0-6.86,5-9.84,7.67-.93-5-4,.88-2.8,5.32-2.06-1.19-2.84-5.77-.79-1.16-3.79,5.55-1L316,20.46l2.64-1.32,3.78,2.11,3.08-4.76-2.3-4,2.54-5.84,8,3,2.07,2.68L335.49,15l-4.33,1.13-.11,3.42,2.1.91-.2,4.25-5,7.54,1.88,12.37,2.63,2.15-.27,2.12-5.1.53,1.15,4.42,2.64,1.32L334,49.82l-.38-8.27L337,36.31l-1.28-9.1,3.49-7.36,2.77-6,3-.31,1.69,4.82.56,3-3.17,5,1.49,1.38,2.11,10L353.39,31l-1.55-11.86,3.81-4.83L353.07,12l-2.92.3.11-3.41,4.36-4.13L356.08,2Zm9.17-2-1.69.51-3.18,1-3.91-1L355.28.17l-.59,1.1-1.35,2.52-4.16,4-.48.45v.66l-.11,3.4-.06,1.81,1.8-.18,2.22-.22,1,.86-2.91,3.64-.41.52.09.67,1.45,11.16-3.21,3.77-1.44-6.85L347,27l-.37-.34-.51-.47,2.48-3.86.34-.52-.11-.62-.58-3V18l0-.13-1.72-4.76L346,11.91l-1.24.12-3,.31-.89.1-.38.79-2.77,6-3.5,7.34L334,27l.08.47L335.3,36l-3,4.76-.26.43v.5l.12,2.83-.88-.72-1.68-11.2,4.7-7,.24-.36v-.44l.21-4.23.06-1.1-1-.43-1.16-.5V17.31l3.17-.79,1-.27.14-1.06.34-2.63.08-.65-.41-.53-2.06-2.66-.28-.36-.42-.16-7.92-3-1.41-.52L324.29,6l-2.54,5.88-.32.74.4.69,1.8,3.08-1.73,2.72-2.48-1.38-.73-.42-.75.38-2.64,1.33-1,.49.12,1.1.3,2.75-4.06.75-1.73.33.5,1.69,1.11,3.75.29,1,1,.14,4.87.7.21.51-3.79,1.47-.71.27-.23.73-.88,2.81-.33,1,.84.67,2.06,1.68-4,.48-.84.1-.39.8L306.83,46l.38-4.34.07-.79-.61-.53-2.87-2.57-1.17-1-1.05,1.18-6.78,7.53-.35.4-.05.52-.23,2.48L291.84,48l-1.29-.4-.6,1.24-2.22,4.54L287,55l1.59.62,2.63,1-.79,1-3.06-1.74-.5-.3-.58.11L283,56.3l-1.13.21-.16,1.14-.45,3.3-.47.27-3.17-2.61-1.33-1.08-1,1.39-2.42,3.43L272,63.68l1.36.9L281.44,70h-.21l-4-.33-.8-.06-.52.57L274.24,72l-.94,1,.31.37-.28-.2-.79.33-2.23.91-1,.39v1.06l-.07,4.68-3,7.83-.45.63.69-9.7.05-.79L266,78l-2.49-2.27-1.26-1.1L261.2,76l-3.67,4.65-.32.4v.52l-.33,7.08v.65l.42.48,1.54,1.72-.47,2.1-2,2.9,1-3.18.11-.36-.07-.38-1.42-7.67-.15-.8-.71-.35-2.54-1.26-1.2-.59-.79,1.08-12.69,17.31-.86,1.17,1,1,.56.5-1.32.88-3.6,2.38-.74.5v.89l.31,7.24-.53.45L226.84,118l-.88.41v1l-.2,6.89v1.23l1.18.34,3,.87-7.25,8.42-3.56-.84-1.21-.3-.57,1.11-4.71,9.23L211,149.51l3.45-.92,3.65-.94,1.7.93.38.21h.44l3.85-.14h.8l.46-.62,1.69-2.3.48.48-2.48,2.23-.53.5v1l-.23-.9-1.59.54-2.84.94-1.14-1.59-.71-1-1.14.44-3.66,1.41-.38.15-.26.32-1.26,1.5-.91,1.08-1.72-.43-1.89-.48-.09,1.94-.1,2.31-.51-.79-1.28,2.45L202.53,163l-.44.07-3-1.24-1.2-.5-.72,1.08L194.1,167l-1.2,1.76,2,.64,4.76,1.5.27.09h.72l-3,.79h-.12l-.11.05-2.22.95-1.88-1.3-1.39-.94-.87,1.42-4.28,6.94-.26.44v.51l.3,4.29,0,.58.4.42,1.59,1.59,1.18,1.21,1.13-1.26,4.7-5.24L200,179.9l.41.58-.14.85-4.12,1.14-.83.23-.26.8-1.33,4.2-.07.22-.53-.41-.91-.71-.95.64-4.71,3.18-2.11,1.48,2.23,1.26,3.39,1.93-.92.21-2.73-.89-2.08-.68v2.46h-.1l-.84-1.73-1-2-1.59,1.59-2,2-.62.63.2.86.89,3.75.19.8.73.31,3.55,1.52-2-.13L181,204l-.53.6-2.72,3.12-1.59,1.8,2.28.74,4,1.31-4.52.8-1-1.55-.57-.91-1.07.2-3.49.65-1.67.3.43,1.66.6,2.29-2.38,3.18-.68.89.61.93.53.79-1.32.8-1.76,1.09-.52.33-.17.59-2.38,8.24-.24.84.57.65,2,2.31.65.74,1-.26,1.3-.35-2,1.69L165,235.5l-.79-1.07L163,235l-2.38,1.2-1.17.61.37,1.25,1.43,4.9-1.69,1.8-.65.7-.15-.9-2.11,1.7c-5.75,4.65-6.65,5.56-6.68,6.35-.4,1-2,4.33-3.5,7.3l-.42.86.56.8,1.72,2.38-.59,3.11-.2,1,.9.58,2,1.29,1.31.83.86-1.29.24-.36.67,3.62-1.18-.8-1-.65-.89.79-2.38,2-1,.87.66,1.14,1.47,2.53.07.11.08.09,3.72,4.62v.07l-3.16-3.88-.33-.4-.5-.12-2.74-.68-2.45-.61.51,2.48,1.86,8.9-.4.19-.55.24-.25.55-1.28,2.85-1,2.26h4.66l.71.15-1.72.32-.8.15-.34.74-2.72,5.85-.71,1.54,1.59.61,8.78,3.41.36.14.4-.05,6.72-.79.64-.08.4-.48,4.82-5.81,15.07-2,1.75,1.28.56.4.67-.13,4.76-.88.91-.16.3-.87,2.9-8.21.11-.32v-.32L191,266.51l-.51-12.22,6.2-.5H197l.28-.14,5.42-2.83.32-.17.22-.29,2.77-3.74.51-.68-.29-.8-1-2.78L204,238.93l.05-1.06,1.69-1.14.34-.24.18-.37,4-8.1,5.16-10.87,3.64-6.94.28-.52-.14-.59-1.8-7.47,0-.15-.07-.16-3.49-7.45.46-2.78,1.82-1.08.39-.24.22-.41,1.81-3.55.11-.22,0-.24,1.21-7.1,7.63-11.91,2.77-.79,3.85,2.77.57.41.7-.16,4.12-.93.71-.15.34-.65,3.55-6.69.24-.47-.07-.52-1.47-9.23v-.06l-1.12-5.66.71-.91,0,0,.2.27.3.15,4,2.15.38.2h.44l4.55-.21,16.44,3.24.79.14.59-.51,4-3.47.48-.41.06-.63.39-4.12.1-1-.88-.51-2.25-1.29-.73-.91L274.7,131l.32-.51-.1-.59-1.59-9.53-.11-.65-.55-.38-3.3-2.31,2.38-.89,5-.79,4.75,1.05,2.24.5-.32-2.27-.55-3.86v-.2l-.07-.19-1.31-3.17,1.89-2.54,2.43-1.27,2.38,1.13,6.47,7.18L303,124.29l.44.66.8,0,9,.56.36.85.35.84.92.12,3.46.42,1.08.14.51-1,1.7-3.18,2.95-.75,1.44-.37-.28-1.46-.53-2.88,1.51-1.87,3.66,2.6.38.26h.47l6.63.21,3.05,2.83.14.14.19.09,2.37,1.29,1.47.79.72-1.49,3.41-7,.12-.25v-.27l.66-6,4-3,.3-.23.17-.35,1.49-3.09.23-.47-.1-.52L350.78,75l3.36-9.34,3.46-7.22,5.43-.73.63-.08.4-.5L369,51l3-2.9,2.38,2.29.17.16.21.1,12.58,6.29L395.53,62l.25,3.79-1.23,5.8v.1l-1,6.63-.06.37.12.35,1.75,5.45.36,1.12h1.18l4.75-.06h.72l.47-.55,2.1-2.45.48-.57-.12-.73-.73-4.37.31-3.84L407,68.85l2.9-2.78.27-.26.12-.36,2.32-6.63.09-.25V56.12l1.2.37.24.07h.25l6.58-.15,1,0,.45-.79,2.16-3.88.42-.79-.39-.8-3.48-6.44-.31-.61-.68-.18-6-1.58-1.39-.38-.5,1.34-.54,1.4-2-2.18L408.51,40l-1.16,1.44-1.82,2.23-.52.65.23.79,1.83,6.3-.25.24-.53-2.26L406,48l-1.41.18-2.9.38-1,.13.2-1.11.08-.51-.23-.46L397.89,41l-.39-.8-.86-.09-6.89-.8,1.09,0h.22l.2-.07,9-2.82.33-.11.26-.23,9.62-8.64.21-.19.14-.26,2.12-4.12.3-.58-.2-.63-1.32-4.18v-.18l-1.12-2.44-.24-.54-.54-.24-5.24-2.34-.58-.27-.61.22-4.76,1.72-.09-.47L397.77,9,397.6,8l-.89-.29-3.34-1.11-.88-.29L391.8,7,389.72,9l-.07-.1-.23-.39-.4-.2-2.38-1.21-1.83-.94-.45,2-.55,2.53-.38-2.05-.07-.4-.26-.32-2-2.51-.45-.61h-.72l-5-.15H374l-.48.8L371,9.33l.14-4.43.08-1.78-1.73.09-3.6.2-.3-1.67Zm.3,15.42,3.84-2.89v.06l1,5.28-.56-.21-3.34-1.25-1.29-.61.34-.38Zm3.68,9.37,1.5-5,1.86,10h0l-1.12-3.59-.24-.8-.76-.26-1.2-.41Zm-40.15,26,2.69-.28-1.51,2.55-.68-.34Zm-26.86,5.82,1-1.63.29-.44,0,5.1v.16l-.94-.34-2.43-.86.09-2.27.41-1.24.19.17Zm1,9.27.4-4.77.07-.67L305,64.34l-1.1,2Zm-17,9.24-3.78-4.48.9.6.39.26h.46l2.14,0-.25.48-.5.93.66.79,1.28,1.59v.25l-1.31-.47Zm-46,32.65-.55-3-.21-1.09,2.09,1.86.12,2Zm-28.86,60.78-1-6.76,0-.33-.19-.29-.07-.12.22.11,1.36,4.09.48,1.46,1.48-.43-2.25,2.28Zm-9,26.13-5.65-4.37,4.66,1.34.69.2.6-.38,1.08-.69-1.28,1.52-.52.61.19.79.23,1Zm-14.71,9.7,3.67-.79.47-.1.33-.33,1.08-1.07,7.81,2.42.13.33-.83.34-6.29-.4-6.35-.43Zm-14.92,22.83-.7-1.75v-.09l0-.09-1.78-3.17-.05-.1,3.18,4.84-.15.31-.39,0Zm-12.63,25.16-.86-5.1-.11-.66.62.5,2.63,2.13.52.43.67-.09,1.7-.21-2,1-.13.07-.13.08-2.38,1.8-.47.06Zm10.9-3.69,1.09-.13.06.79-.36.22-.31-.36-.44-.5Zm-13.36,13.4,1.08-1.59,3.69,2.87.06.25-1.52-1-.35-.24h-.43l-2.53-.19Zm-7,35.72-.21-1.11-.12-.7.31.07v1.74Z" style="fill: #fff"/>
        <path d="M232.24,95l2.93-2.07-1-1.88,5.31-3.75-.63-3.42,3.53-2-3.17-2.17,6.15-6.41,7.83,2.41,3.31,1,.69,3.7-3.91.72-2.53-1-4.21,6.14-4.26,8-4.91,4.46-7.31.33Z" style="fill: #f43b00"/>
        <path d="M245.62,74.16,253,76.42l2.85.89.45,2.44-2.9.54-2.91-1.2-4.58,6.7-4.23,7.88-4.59,4.17-5.63.26,1.4-2.63,3.36-2.38-1-1.8,5.17-3.65-.63-3.36,4.15-2.38-3.45-2.38,5.16-5.39Zm-.47-1.84-.67.71-5.16,5.38L238,79.76l1.54,1.06,1.35.93L239,82.84l-1,.57.2,1.11.44,2.38-4.33,3-1.13.8.64,1.23.33.64-2.21,1.59-.31.22-.18.33L230,97.37l-1.31,2.46,2.78-.13,5.64-.25h.57l.42-.38,4.6-4.21.19-.18.14-.25,4.17-7.81,3.82-5.56,1.73.72.42.17.46-.08,2.91-.54,1.58-.29-.28-1.59L257.4,77l-.17-.94-.92-.28-2.84-.89-7.38-2.27-.94-.29Z" style="fill: #fff"/>
        <path d="M215.17,122.06l1.29-4.79-2-3.88,3.82-1.22-1-6.31,9.45-9.67,5,7.3.22,10.41-7.2,2.49-2.94,6.08Z" style="fill: #f43b00"/>
        <path d="M226.58,97.44l4.33,6.3.21,9.6-7,2.38-2.86,5.91-5.11-.32,1.13-4.16-1.72-3.31,3.58-1.12-1-6.59,8.48-8.69Zm.26-2.49-1.35,1.38L217,105.06l-.55.57.12.8.85,5.24-2.27.72-1.8.57.87,1.67,1.43,2.77-1,3.56-.52,1.84,1.94.12,5.11.31,1.06.06.46-1,2.57-5.31,6.34-2.18,1.1-.38v-1.16l-.21-9.6v-.48l-.27-.38-4.33-6.31L226.85,95Z" style="fill: #fff"/>
        <path d="M192.66,150.27l-1.23-6.63,4.3-3.7.25-6.37-2.66-3.41-.34-6.47L201.82,111l3.46,2.57-1.95,8.14-4,4.37.56,1.49,3.35-.28.22,10-.47,2.89,3.12-3.08-2-2.77,5.2-10.12,2.63,3.48-.44,4.16,3.09,1.85-1.77,7.05-4,2.07-5.16,5,.1,4.92-6.47,2.52Z" style="fill: #f43b00"/>
        <path d="M202,112.12l2.38,1.77-1.77,7.44-4.2,4.57.93,2.51,3.11-.26.2,9.13-.85,5.21,5.34-5.26L205,134.31l4.39-8.56,1.67,2.22-.45,4.35,3,1.8-1.54,6.14-3.75,2-5.49,5.29.09,4.76-5.45,2.08-4.14-4.45-1.11-6,4.22-3.63.28-7-2.69-3.44-.32-6,8.23-11.8Zm-.39-2.24-.93,1.33L192.48,123l-.31.44V124l.31,5.95v.5l.31.39,2.34,3-.23,5.73-3.69,3.18-.69.59.16.9,1.11,6,.08.46.32.34,4.14,4.44.73.79,1-.38,5.45-2.12,1-.41v-1.1l-.07-4,4.83-4.65,3.54-1.86.62-.33.18-.68,1.54-6.14.29-1.14-1-.6-2.15-1.3.34-3.34.08-.62-.38-.5-1.68-2.21-1.52-2L208,125.06l-3.89,7.53-.09-4.44v-1.69l-1.69.14-1.91.16-.18-.47,3.55-3.85.27-.3.1-.41,1.78-7.44.24-1-.84-.63L203,110.88l-1.31-1ZM204.13,138l.06-.42v-1.65l.85,1.17-.91.9Z" style="fill: #fff"/>
        <path d="M184.38,144.77l1.69-2.79L184,142l-3.67,5.12-2.76-5.69,2.24-7.28,5.31,1.81,1.82-.75-3.36-2.1.25-6,2.75,1.88,2.51-3,2.92,2.57,1.39,12.46-2.94,2.74-1.71,3.6-.64,2.83-6.45.07Z" style="fill: #f43b00"/>
        <path d="M189.14,127l2.07,1.83,1.32,11.76-2.76,2.56L188,147l-.51,2.31-4.52,0,2.17-4.2,2.38-3.91-3.91-.06-3.13,4.37-2.09-4.22,1.91-6.2,4.82,1.63,3.52-1.45-4.28-2.68.17-4.14,2.17,1.49,2.45-3ZM189,124.7l-1,1.27-1.5,1.87-1-.66-2.38-1.59-.12,2.86-.18,4.12,0,.92.79.5,1.66,1-.1,0-4.26-1.45-1.59-.52-.48,1.59-1.85,6.16-.18.6.27.56,2,4.21,1.17,2.38,1.58-2.16,2.65-3.7h.32l-.94,1.59v.1l-2.17,4.19-1.2,2.34h2.63l4.51-.05h1.26l.27-1.23.48-2.13,1.59-3.38,2.54-2.38.58-.55-.08-.79-1.32-11.77-.07-.61-.46-.4-2.08-1.83-1.23-1.08Z" style="fill: #fff"/>
        <path d="M176.77,159.4l3.43-5.87,4.87-2.27,5.87-.37,2.33,5.77-6,1.11-4.4,6.1-4,.75Z" style="fill: #f43b00"/>
        <path d="M190.41,151.72l1.76,4.33-5.34,1-4.39,6.11-3.05.56-1.71-4.25,3.12-5.32,4.5-2.11,5.14-.32Zm1.08-1.66-1.14.07-5.15.33h-.3l-.27.13-4.57,2.11-.44.22-.26.42-3.11,5.33-.4.67.3.72,1.77,4.26.48,1.19,1.27-.23,3.06-.57.62-.12.38-.52,4-5.56,4.71-.88,1.91-.34-.73-1.81-1.75-4.33-.43-1.06Z" style="fill: #fff"/>
        <path d="M165.55,164.11l2.36-4.19,4.47-3.39,3.87,1.29.42,2.22-2.14,5.23-7.8,5.19Z" style="fill: #f43b00"/>
        <path d="M172.53,157.41l3,1,.29,1.53-2,4.76-6.6,4.39-.91-4.89,2.14-3.79,4-3Zm-.29-1.79-.67.51-4,3-.26.19-.16.29L165,163.44l-.28.51.1.57.91,4.88.44,2.38,2-1.33,6.61-4.39.41-.27.19-.45,1.95-4.76.17-.43-.09-.46-.28-1.52-.17-.93-.89-.29-3-1-.79-.27Z" style="fill: #fff"/>
        <path d="M153.75,177.31,155,170.8l8.34-5.28,1.06,5.68-2.59,3L160.6,179l-4.06,3.63Z" style="fill: #f43b00"/>
        <path d="M162.75,166.82l.8,4.15-2.49,2.87-1.17,4.77-3.12,2.79-2.2-4.17,1.12-5.9,7.06-4.47Zm1.14-2.56-2,1.26L154.85,170l-.58.37-.14.67-1.11,5.9-.1.54.25.49,2.2,4.18.95,1.8,1.53-1.37,3.11-2.78.36-.33.12-.47,1.08-4.35,2.22-2.59.5-.58-.14-.75-.79-4.16-.43-2.3Z" style="fill: #fff"/>
        <path d="M284.1,44.4l-4.35-1.31.76-3.46,5.16-.52.79-2.16,3.21.57.47-3.07,5.23-2,3.93-6.09.95,5.12-2.42,8.63-6,6.25-5.06.93Z" style="fill: #f43b00"/>
        <path d="M298.89,28.47l.55,3-2.32,8.24-5.73,5.91-4.36.8-2.49-2.73-3.85-1.16.48-2.18,5.07-.5.73-2,3.36.58.53-3.4,5-1.9,3-4.63Zm.81-4.22-2.17,3.35-2.71,4.2-4.5,1.75-.86.33-.14.9L289,36.59l-1.76-.31L286,36.05l-.48,1.26-.39,1.07-4.08.41-1.15.11L279.61,40l-.47,2.18-.31,1.43,1.4.43,3.43,1,2.19,2.39.6.65.86-.16,4.37-.8.49-.09.36-.37,5.72-5.91.28-.29.11-.39L301,31.88l.1-.36-.06-.36-.56-3-.73-3.92Z" style="fill: #fff"/>
        <path d="M249.28,72.35l-2.37-3.14,3.21-2.64,1.37-3.21,6.85,4.49.8,4.35-3.44,2.1Z" style="fill: #f43b00"/>
        <path d="M251.85,64.54l5.76,3.78.65,3.48-2.67,1.64-5.84-1.78L248,69.34l2.77-2.28Zm-.72-2.38-.74,1.75-.92,2.16-2.48,2-1.17,1,.92,1.22,1.75,2.31.31.42.49.15,5.84,1.78.68.2.61-.37,2.67-1.64.93-.57-.2-1.07L259.18,68l-.13-.66-.57-.38-5.77-3.78-1.58-1Z" style="fill: #fff"/>
        <path d="M262.68,71.62l-1.49-4.31,3-4.33,5.29-1,.05,3.54,2.23.43-.33,5.32-3.69.69Z" style="fill: #f43b00"/>
        <path d="M268.73,63l0,3.25,2.17.42-.24,4-3,.55-4.47-.31-1.19-3.36,2.61-3.74,4.05-.79ZM270.31,61l-1.84.34-4.05.75-.64.12-.38.53-2.6,3.74-.47.67.27.79,1.19,3.44.34,1,1,.08,4.47.31h.4l3-.55,1.22-.23.07-1.23.25-4,.09-1.39-1.37-.28-.91-.17V61.08Z" style="fill: #fff"/>
      </g>
    </g>
  </g>
</svg>
