<svg xmlns="http://www.w3.org/2000/svg" viewBox="0 0 261.77 296.69">
  <g id="Layer_2" data-name="Layer 2">
    <g id="Layer_1-2" data-name="Layer 1">
      <path d="M253.19,123.18,137.48,7.45A17.39,17.39,0,1,0,112.88,32L228.61,147.77a17.38,17.38,0,1,0,24.58-24.59Z"/>
      <path d="M104.29,48l-.87,4.37c-6.13,30.69-21,59.84-41.21,83.47l63,63c23.63-20.16,52.38-35.48,83.07-41.62l4.37-.87Z"/>
      <path d="M50.67,148.92l-43,43a26.07,26.07,0,0,0,0,36.88L32.22,253.4a26.08,26.08,0,0,0,36.89,0l43-43Zm6.14,67.61a8.69,8.69,0,0,1-12.29-12.29L56.81,192a8.69,8.69,0,0,1,12.3,12.29Z"/>
      <path d="M148.42,258l11.83-11.83a26.06,26.06,0,0,0,0-36.87l-8.79-8.79a164.09,164.09,0,0,0-14,10.59L148,221.63a8.66,8.66,0,0,1,0,12.28l-12,12-17.67-17.11L93.69,253.4l39.44,38.22A17.38,17.38,0,0,0,157.7,267Z"/>
      <path d="M183.54,0a8.69,8.69,0,0,0-8.7,8.69V26.08a8.7,8.7,0,0,0,17.39,0V8.69A8.69,8.69,0,0,0,183.54,0Z"/>
      <path d="M253.07,69.54H235.69a8.69,8.69,0,0,0,0,17.38h17.38a8.69,8.69,0,1,0,0-17.38Z"/>
      <path d="M241.84,19.93a8.71,8.71,0,0,0-12.3,0L212.16,37.31a8.69,8.69,0,0,0,12.29,12.3l17.39-17.39A8.7,8.7,0,0,0,241.84,19.93Z"/>
    </g>
  </g>
</svg>
